<?xml version="1.0" encoding="UTF-8" standalone="no"?>
<!-- Created with Inkscape (http://www.inkscape.org/) -->

<svg
   width="16"
   height="10"
   viewBox="0 0 4.2333332 2.6458334"
   version="1.1"
   id="svg8"
   sodipodi:docname="background.svg"
   inkscape:version="1.1 (c4e8f9ed74, 2021-05-24)"
   xmlns:inkscape="http://www.inkscape.org/namespaces/inkscape"
   xmlns:sodipodi="http://sodipodi.sourceforge.net/DTD/sodipodi-0.dtd"
   xmlns="http://www.w3.org/2000/svg"
   xmlns:svg="http://www.w3.org/2000/svg"
   xmlns:rdf="http://www.w3.org/1999/02/22-rdf-syntax-ns#"
   xmlns:cc="http://creativecommons.org/ns#"
   xmlns:dc="http://purl.org/dc/elements/1.1/">
  <defs
     id="defs2" />
  <sodipodi:namedview
     id="base"
     pagecolor="#ffffff"
     bordercolor="#666666"
     borderopacity="1.0"
     inkscape:pageopacity="0.0"
     inkscape:pageshadow="2"
     inkscape:zoom="45.254834"
     inkscape:cx="7.8113202"
     inkscape:cy="4.7398251"
     inkscape:document-units="mm"
     inkscape:current-layer="layer1"
     showgrid="true"
     units="px"
     inkscape:window-width="3840"
     inkscape:window-height="2100"
     inkscape:window-x="0"
     inkscape:window-y="24"
     inkscape:window-maximized="1"
     inkscape:pagecheckerboard="0">
    <inkscape:grid
       type="xygrid"
       id="grid815"
       empspacing="4"
       enabled="true" />
    <inkscape:grid
       type="xygrid"
       id="grid817"
       empspacing="1"
       originy="0.13229167"
       originx="0.13229167"
       dotted="true"
       enabled="true" />
  </sodipodi:namedview>
  <metadata
     id="metadata5">
    <rdf:RDF>
      <cc:Work
         rdf:about="">
        <dc:format>image/svg+xml</dc:format>
        <dc:type
           rdf:resource="http://purl.org/dc/dcmitype/StillImage" />
      </cc:Work>
    </rdf:RDF>
  </metadata>
  <g
     inkscape:label="Layer 1"
     inkscape:groupmode="layer"
     id="layer1"
     transform="translate(0,-294.35415)">
    <rect
       style="opacity:1;fill:#c86400;fill-opacity:1;stroke:none;stroke-width:0.52916664;stroke-linecap:round;stroke-linejoin:round;stroke-miterlimit:4;stroke-dasharray:none;stroke-dashoffset:0;stroke-opacity:1;paint-order:normal"
       id="rect848"
       width="4.2333331"
       height="2.6458333"
       x="0"
       y="294.35416" />
    <path
       style="opacity:1;fill:#ff0000;fill-opacity:1;stroke:none;stroke-width:1.99999988;stroke-linecap:round;stroke-linejoin:round;stroke-miterlimit:4;stroke-dasharray:none;stroke-dashoffset:0;stroke-opacity:1;paint-order:normal"
       d="M 1.2128906 1.9707031 L 0.98242188 5.671875 L -2.4082031 2.9101562 L -0.93359375 6.7792969 L -1.6191406 6.4628906 A 3 3 0 0 0 -1.4296875 6.8183594 L -0.6875 7.2363281 L -0.94921875 7.4042969 A 3 3 0 0 0 -0.390625 7.8261719 A 3 3 0 0 0 1.8867188 8.1230469 L 1.9042969 8.1289062 A 3 3 0 0 0 2.2011719 10.40625 A 3 3 0 0 0 3.8535156 11.75 L 3.6699219 10.552734 L 7.4335938 11.734375 L 5.4648438 8.8125 L 8.25 8.0273438 L 4.9472656 7.0371094 L 6.9765625 4.7382812 L 4.1328125 5.8164062 L 5.34375 2 L 2.4667969 4.4648438 L 1.2128906 1.9707031 z "
       transform="matrix(0.26458333,0,0,0.26458333,0,294.35415)"
       id="path828-3" />
    <path
       style="opacity:1;fill:#c8c800;fill-opacity:1;stroke:none;stroke-width:1.99999988;stroke-linecap:round;stroke-linejoin:round;stroke-miterlimit:4;stroke-dasharray:none;stroke-dashoffset:0;stroke-opacity:1;paint-order:normal"
       d="M 1.4042969 3.4765625 L 1.2304688 6.265625 L -1.3261719 4.1835938 L -0.21484375 7.1015625 L -1.625 6.4492188 A 3 3 0 0 0 -1.5625 6.5820312 L -0.029296875 7.4453125 L -0.50585938 7.7519531 A 3 3 0 0 0 -0.390625 7.8261719 A 3 3 0 0 0 1.8867188 8.1230469 L 1.9042969 8.1308594 A 3 3 0 0 0 2.0605469 10.130859 L 2.1289062 9.9726562 L 2.7890625 11.134766 A 3 3 0 0 0 2.7910156 11.136719 A 3 3 0 0 0 3.5117188 11.615234 L 3.2558594 9.9453125 L 6.09375 10.835938 L 4.609375 8.6328125 L 6.7089844 8.0410156 L 4.21875 7.2949219 L 5.7480469 5.5625 L 3.6054688 6.375 L 4.5175781 3.4980469 L 2.3496094 5.3554688 L 1.4042969 3.4765625 z "
       transform="matrix(0.26458333,0,0,0.26458333,0,294.35415)"
       id="path828" />
    <path
       style="opacity:1;fill:#000000;fill-opacity:1;stroke:none;stroke-width:0.52916664;stroke-linecap:round;stroke-linejoin:round;stroke-miterlimit:4;stroke-dasharray:none;stroke-dashoffset:0;stroke-opacity:1;paint-order:normal"
       d="m 2.035762,296.91562 -1.53183158,-0.41045 a 0.79374999,0.79374999 0 0 0 0.0785081,0.6021 0.79374999,0.79374999 0 0 0 1.08428268,0.29053 0.79374999,0.79374999 0 0 0 0.3690408,-0.48218 z"
       id="path826"
       inkscape:connector-curvature="0"
       inkscape:transform-center-x="-0.75787964"
       inkscape:transform-center-y="0.49545885" />
    <path
       style="opacity:1;fill:#000000;fill-opacity:1;stroke:none;stroke-width:0.52916664;stroke-linecap:round;stroke-linejoin:round;stroke-miterlimit:4;stroke-dasharray:none;stroke-dashoffset:0;stroke-opacity:1;paint-order:normal"
       d="m -0.39364254,295.3405 a 0.79374999,0.79374999 0 0 0 0.29053266,1.08428 0.79374999,0.79374999 0 0 0 0.60210151,0.0785 L 0.0885386,294.97145 a 0.79374999,0.79374999 0 0 0 -0.48218114,0.36905 z"
       id="path821"
       inkscape:connector-curvature="0"
       inkscape:transform-center-x="0.49963387"
       inkscape:transform-center-y="-0.7506503" />
    <path
       style="fill:#ffffff;stroke:none;stroke-width:0.26458332px;stroke-linecap:butt;stroke-linejoin:miter;stroke-opacity:1;fill-opacity:1"
       d="m 0.49899162,296.50328 0.49732998,-1.54968 0.107487,0.0289 z"
       id="path1302"
       inkscape:connector-curvature="0" />
    <path
       style="fill:#ffffff;stroke:none;stroke-width:0.26458332px;stroke-linecap:butt;stroke-linejoin:miter;stroke-opacity:1;fill-opacity:1"
       d="m 0.49899162,296.50328 1.01822838,-1.14454 0.053743,0.0537 z"
       id="path1304"
       inkscape:connector-curvature="0" />
    <path
       style="fill:#ffffff;stroke:none;stroke-width:0.26458332px;stroke-linecap:butt;stroke-linejoin:miter;stroke-opacity:1;fill-opacity:1"
       d="m 0.49899162,296.50328 1.92773358,-0.88409 0.016536,0.0413 z"
       id="path1306"
       inkscape:connector-curvature="0" />
    <path
       style="fill:#ffffff;stroke:none;stroke-width:0.26458332px;stroke-linecap:butt;stroke-linejoin:miter;stroke-opacity:1;fill-opacity:1"
       d="m 0.49899162,296.50328 2.13443938,-0.30118 0.00413,0.0744 z"
       id="path1308"
       inkscape:connector-curvature="0" />
    <circle
       style="opacity:1;fill:#ffffff;fill-opacity:1;stroke:none;stroke-width:0.52916664;stroke-linecap:round;stroke-linejoin:round;stroke-miterlimit:4;stroke-dasharray:none;stroke-dashoffset:0;stroke-opacity:1;paint-order:normal"
       id="path1310"
       cx="1.0666015"
       cy="294.6973"
       r="0.041341145" />
    <circle
       style="opacity:1;fill:#ffffff;fill-opacity:1;stroke:none;stroke-width:0.52916664;stroke-linecap:round;stroke-linejoin:round;stroke-miterlimit:4;stroke-dasharray:none;stroke-dashoffset:0;stroke-opacity:1;paint-order:normal"
       id="path1314"
       cx="1.2443684"
       cy="294.59805"
       r="0.07441406" />
    <circle
       style="opacity:1;fill:#ffffff;fill-opacity:1;stroke:none;stroke-width:0.52916664;stroke-linecap:round;stroke-linejoin:round;stroke-miterlimit:4;stroke-dasharray:none;stroke-dashoffset:0;stroke-opacity:1;paint-order:normal"
       id="path1316"
       cx="1.2567708"
       cy="294.81717"
       r="0.049609374" />
    <circle
       style="opacity:1;fill:#ffffff;fill-opacity:1;stroke:none;stroke-width:0.52916664;stroke-linecap:round;stroke-linejoin:round;stroke-miterlimit:4;stroke-dasharray:none;stroke-dashoffset:0;stroke-opacity:1;paint-order:normal"
       id="path1318"
       cx="1.5420247"
       cy="295.16031"
       r="0.062011719" />
    <circle
       style="opacity:1;fill:#ffffff;fill-opacity:1;stroke:none;stroke-width:0.52916664;stroke-linecap:round;stroke-linejoin:round;stroke-miterlimit:4;stroke-dasharray:none;stroke-dashoffset:0;stroke-opacity:1;paint-order:normal"
       id="path1322"
       cx="1.6949869"
       cy="295.23059"
       r="0.033072915" />
    <circle
       style="opacity:1;fill:#ffffff;fill-opacity:1;stroke:none;stroke-width:0.52916664;stroke-linecap:round;stroke-linejoin:round;stroke-miterlimit:4;stroke-dasharray:none;stroke-dashoffset:0;stroke-opacity:1;paint-order:normal"
       id="path1324"
       cx="1.6040365"
       cy="295.31741"
       r="0.03720703" />
    <circle
       style="opacity:1;fill:#ffffff;fill-opacity:1;stroke:none;stroke-width:0.52916664;stroke-linecap:round;stroke-linejoin:round;stroke-miterlimit:4;stroke-dasharray:none;stroke-dashoffset:0;stroke-opacity:1;paint-order:normal"
       id="path1328"
       cx="1.8562174"
       cy="295.15204"
       r="0.078548178" />
    <circle
       style="opacity:1;fill:#ffffff;fill-opacity:1;stroke:none;stroke-width:0.52916664;stroke-linecap:round;stroke-linejoin:round;stroke-miterlimit:4;stroke-dasharray:none;stroke-dashoffset:0;stroke-opacity:1;paint-order:normal"
       id="path1330"
       cx="1.7735351"
       cy="295.38354"
       r="0.041341145" />
    <circle
       style="opacity:1;fill:#ffffff;fill-opacity:1;stroke:none;stroke-width:0.52916664;stroke-linecap:round;stroke-linejoin:round;stroke-miterlimit:4;stroke-dasharray:none;stroke-dashoffset:0;stroke-opacity:1;paint-order:normal"
       id="path1334"
       cx="2.5796874"
       cy="295.53238"
       r="0.033072915" />
    <circle
       style="opacity:1;fill:#ffffff;fill-opacity:1;stroke:none;stroke-width:0.52916664;stroke-linecap:round;stroke-linejoin:round;stroke-miterlimit:4;stroke-dasharray:none;stroke-dashoffset:0;stroke-opacity:1;paint-order:normal"
       id="path1336"
       cx="2.674772"
       cy="295.54892"
       r="0.03720703" />
    <circle
       style="opacity:1;fill:#ffffff;fill-opacity:1;stroke:none;stroke-width:0.52916664;stroke-linecap:round;stroke-linejoin:round;stroke-miterlimit:4;stroke-dasharray:none;stroke-dashoffset:0;stroke-opacity:1;paint-order:normal"
       id="path1338"
       cx="2.6086264"
       cy="295.63986"
       r="0.045475259" />
    <circle
       style="opacity:1;fill:#ffffff;fill-opacity:1;stroke:none;stroke-width:0.52916664;stroke-linecap:round;stroke-linejoin:round;stroke-miterlimit:4;stroke-dasharray:none;stroke-dashoffset:0;stroke-opacity:1;paint-order:normal"
       id="path1342"
       cx="2.8194661"
       cy="296.12769"
       r="0.070279948" />
    <circle
       style="opacity:1;fill:#ffffff;fill-opacity:1;stroke:none;stroke-width:0.52916664;stroke-linecap:round;stroke-linejoin:round;stroke-miterlimit:4;stroke-dasharray:none;stroke-dashoffset:0;stroke-opacity:1;paint-order:normal"
       id="path1344"
       cx="2.8732097"
       cy="296.26825"
       r="0.045475259" />
    <circle
       style="opacity:1;fill:#ffffff;fill-opacity:1;stroke:none;stroke-width:0.52916664;stroke-linecap:round;stroke-linejoin:round;stroke-miterlimit:4;stroke-dasharray:none;stroke-dashoffset:0;stroke-opacity:1;paint-order:normal"
       id="path1346"
       cx="2.9848306"
       cy="296.15662"
       r="0.057877604" />
  </g>
</svg>
