<?xml version="1.0" encoding="UTF-8" standalone="no"?>
<svg
   xmlns:dc="http://purl.org/dc/elements/1.1/"
   xmlns:cc="http://creativecommons.org/ns#"
   xmlns:rdf="http://www.w3.org/1999/02/22-rdf-syntax-ns#"
   xmlns:svg="http://www.w3.org/2000/svg"
   xmlns="http://www.w3.org/2000/svg"
   xmlns:sodipodi="http://sodipodi.sourceforge.net/DTD/sodipodi-0.dtd"
   xmlns:inkscape="http://www.inkscape.org/namespaces/inkscape"
   sodipodi:docname="mark.svg"
   inkscape:version="1.0beta1 (32d4812, 2019-09-19)"
   id="svg8"
   version="1.1"
   viewBox="0 0 8.4666665 8.4666669"
   height="32"
   width="32">
  <defs
     id="defs2" />
  <sodipodi:namedview
     inkscape:document-rotation="0"
     inkscape:window-maximized="0"
     inkscape:window-y="23"
     inkscape:window-x="0"
     inkscape:window-height="907"
     inkscape:window-width="1600"
     units="px"
     showgrid="true"
     inkscape:current-layer="layer1"
     inkscape:document-units="mm"
     inkscape:cy="15.9107"
     inkscape:cx="-9.1665246"
     inkscape:zoom="7.919596"
     inkscape:pageshadow="2"
     inkscape:pageopacity="0.0"
     borderopacity="1.0"
     bordercolor="#666666"
     pagecolor="#ffffff"
     id="base">
    <inkscape:grid
       empspacing="4"
       id="grid815"
       type="xygrid" />
    <inkscape:grid
       dotted="true"
       originx="0.13229167"
       originy="0.13229167"
       empspacing="1"
       id="grid817"
       type="xygrid" />
  </sodipodi:namedview>
  <metadata
     id="metadata5">
    <rdf:RDF>
      <cc:Work
         rdf:about="">
        <dc:format>image/svg+xml</dc:format>
        <dc:type
           rdf:resource="http://purl.org/dc/dcmitype/StillImage" />
        <dc:title></dc:title>
      </cc:Work>
    </rdf:RDF>
  </metadata>
  <g
     transform="translate(0,-288.53332)"
     id="layer1"
     inkscape:groupmode="layer"
     inkscape:label="Layer 1">
    <g
       style="font-style:normal;font-variant:normal;font-weight:normal;font-stretch:normal;font-size:7.81216px;font-family:Contemporary;-inkscape-font-specification:Contemporary;fill:#ffffff;fill-opacity:1;stroke:none;stroke-width:0.195304"
       id="text1136"
       aria-label="?">
      <path
         id="path1138"
         style="font-style:normal;font-variant:normal;font-weight:normal;font-stretch:normal;font-family:Contemporary;-inkscape-font-specification:Contemporary;fill:#ffffff;fill-opacity:1;stroke-width:0.195304"
         d="m 4.2494471,289.99331 q 0.5077904,0 0.9062105,0.19531 0.4062323,0.18749 0.632785,0.53122 0.2343648,0.33593 0.2343648,0.74997 0,0.31249 -0.1093703,0.55467 -0.101558,0.23436 -0.2578012,0.40623 -0.1484311,0.16405 -0.3984202,0.37498 -0.3359229,0.28905 -0.4999782,0.5156 -0.1640554,0.22656 -0.1640554,0.56248 v 0.10937 q 0,0.0859 -0.062497,0.14843 -0.062497,0.0625 -0.148431,0.0625 H 4.0932039 q -0.085934,0 -0.1484311,-0.0625 -0.062497,-0.0625 -0.062497,-0.14843 v -0.16406 q 0,-0.31248 0.1093703,-0.54685 0.1093702,-0.24217 0.2578013,-0.40623 0.1562432,-0.16405 0.4140444,-0.39842 0.3281108,-0.28124 0.484354,-0.49217 0.1640553,-0.21874 0.1640553,-0.5156 0,-0.37498 -0.3124864,-0.59372 -0.3124864,-0.21874 -0.7499673,-0.21874 -0.4218567,0 -0.7030944,0.21093 -0.2812378,0.21092 -0.390608,0.64841 -0.015624,0.0781 -0.078122,0.12499 -0.054685,0.0469 -0.1249946,0.0469 H 2.6167056 q -0.070309,0 -0.1249945,-0.0469 -0.054685,-0.0547 -0.046873,-0.12499 0.023436,-0.36718 0.2265526,-0.71872 0.2109284,-0.35155 0.6093485,-0.5781 0.4062323,-0.22656 0.9687079,-0.22656 z m 0.4218566,5.33571 q 0,0.0859 -0.062497,0.14843 -0.062497,0.0625 -0.148431,0.0625 H 4.0150823 q -0.085934,0 -0.1484311,-0.0625 -0.062497,-0.0625 -0.062497,-0.14843 v -0.44529 q 0,-0.0859 0.062497,-0.14843 0.062497,-0.0625 0.1484311,-0.0625 h 0.4452931 q 0.085934,0 0.148431,0.0625 0.062497,0.0625 0.062497,0.14843 z" />
    </g>
  </g>
</svg>
